<?xml version="1.0" encoding="utf-8"?>
<!-- Generator: Adobe Illustrator 24.1.2, SVG Export Plug-In . SVG Version: 6.00 Build 0)  -->
<svg version="1.1" id="castor_LOGO_1_" xmlns="http://www.w3.org/2000/svg" xmlns:xlink="http://www.w3.org/1999/xlink" x="0px"
	 y="0px" viewBox="0 0 480 108" style="enable-background:new 0 0 480 108;" xml:space="preserve">
<style type="text/css">
	.st0{fill-rule:evenodd;clip-rule:evenodd;fill:#FFFFFF;}
</style>v
<g id="Castory_LOGO">
	<g>
		<path class="st0" d="M89.28,66.94c-1.5,0.01-2.44-0.2-1.4-2.02c2.55-4.43,4.01-9.26,4.66-14.29c0.28-2.18,1.35-2.78,3.21-2.98
			c18.04-0.69,17.18-13.61,16.81-16.16c-3.42-11.76-8.34-20.32-27.75-22.46C71.08,7.53,59.9,8.2,46.39,8.71
			C25.3,9.52,6.78,26.13,3.89,46.98c-3.79,27.4,15,50.31,39.97,53.69c2.68,0.36,35.51,0.16,49.21,0.16
			c4.71-0.77,9.39-1.61,13.76-3.68c17.79-8.47,16.36-22.48,16.36-30.14C116.78,67.01,94.16,66.92,89.28,66.94z M113.49,78.94
			c-3.24,7.49-9.46,10.95-16.99,12.54c-3.43,0.72-6.9,1.06-10.43,1.01c-5.02-0.07-29.24-0.02-36.33-0.02
			c-18.85-0.01-35.42-14.49-37.65-33.36C9.4,36.46,25.69,18.52,44.9,16.15c-0.5,0.06,26.77-0.29,26.77-0.29
			c6.91-0.17,13.87-0.57,20.55,1.89c5.69,2.1,9.74,5.93,12.06,11.6c0.54,1.32,0.66,2.52-0.18,3.86c-1.26,2.01-0.93,6.87-0.96,9.23
			c-0.01,0.88-0.34,0.98-1.65,1.19c-1.36,0.22-3.65,0.52-3.79-0.15c-0.21-1.02-0.86-5.02-2.2-4.43c-5.62,2.48-8.61,0.35-8.6,3.88
			c-1.69,7.17-2.81,8.52-4.54,13.66c-6.63,10.23-6.57,3.3-5.61-2.92c-2.21-6.14-6.84-5.76-6.08-4.8c0.87,1.09,2.93,12.68,3.04,16.59
			c0.05,1.69,0.9,4.38-5.13,5.3c-5.22,1.17-25.03,1.95-29.81,4.43c8.86,0.77,9.75,0.77,32.64,0.78c13.78,0,26.43,0.3,39.89-0.45
			C114.58,75.45,114.82,75.85,113.49,78.94z M149.17,34.91c1.45-1.78,3.28-3.18,5.51-4.18c2.23-1,4.79-1.51,7.68-1.51
			c2.6,0,4.97,0.5,7.13,1.51c2.15,1,4.16,2.62,6.01,4.85l6.9-6.13c-2.6-2.82-5.62-4.91-9.07-6.24s-7.11-2.01-10.97-2.01
			c-4.01,0-7.67,0.69-10.97,2.06c-3.3,1.38-6.14,3.29-8.52,5.74c-2.38,2.45-4.21,5.35-5.51,8.7c-1.3,3.35-1.95,6.99-1.95,10.93
			c0,4.01,0.65,7.69,1.95,11.04c1.3,3.35,3.12,6.24,5.46,8.7c2.34,2.45,5.18,4.35,8.52,5.69c3.34,1.34,7.01,2.01,11.02,2.01
			c3.79,0,7.39-0.67,10.8-2.01c3.41-1.34,6.38-3.46,8.91-6.36l-6.46-6.13c-3.12,4.31-7.53,6.47-13.25,6.47
			c-2.67,0-5.09-0.5-7.24-1.51c-2.15-1-3.99-2.4-5.51-4.18c-1.52-1.78-2.71-3.85-3.56-6.19c-0.85-2.34-1.28-4.85-1.28-7.53
			c0-2.68,0.37-5.18,1.11-7.53C146.63,38.76,147.73,36.7,149.17,34.91z M112.53,31.3c0.01,0.06,0.02,0.13,0.03,0.2
			c0.07,0.26,0.15,0.51,0.22,0.77C112.65,31.81,112.57,31.49,112.53,31.3z M88.84,25.57c1.98-0.14,2.48,0.09,2.48-0.86
			c-0.01-0.95-0.79-2.01-2.77-1.87s-2.87-0.12-2.87,0.83C85.68,24.61,86.86,25.71,88.84,25.57z M404.94,23.16
			c-2.5,1.95-4.77,4.03-6.23,7.09h-0.22v-9.16h-13.11v54.94h13.11V46.27c0-0.73,0.16-1.82,0.49-3.27c0.33-1.45,0.98-2.91,1.97-4.36
			c0.98-1.45,2.4-2.74,4.26-3.87c1.86-1.13,4.31-1.69,7.37-1.69c1.02,0,2.06,0.09,3.11,0.27c1.05,0.18,2.13,0.42,3.22,0.71
			l0.01-12.87C416.52,21.2,408.03,20.74,404.94,23.16z M373.04,28.61c-2.55-2.4-5.57-4.25-9.07-5.56c-3.5-1.31-7.21-1.96-11.14-1.96
			c-3.93,0-7.65,0.65-11.14,1.96c-3.5,1.31-6.52,3.16-9.07,5.56c-2.55,2.4-4.57,5.29-6.06,8.67c-1.49,3.38-2.24,7.14-2.24,11.28
			c0,4.14,0.75,7.9,2.24,11.28c1.49,3.38,3.51,6.27,6.06,8.67c2.55,2.4,5.57,4.25,9.07,5.56c3.5,1.31,7.21,1.96,11.14,1.96
			c3.93,0,7.65-0.65,11.14-1.96c3.5-1.31,6.52-3.16,9.07-5.56c2.55-2.4,4.57-5.29,6.06-8.67c1.49-3.38,2.24-7.14,2.24-11.28
			c0-4.14-0.75-7.9-2.24-11.28C377.61,33.9,375.59,31.01,373.04,28.61z M367.2,54.45c-0.69,1.89-1.71,3.56-3.06,5.01
			c-1.35,1.45-2.97,2.62-4.86,3.49c-1.89,0.87-4.04,1.31-6.44,1.31c-2.4,0-4.55-0.44-6.45-1.31c-1.89-0.87-3.51-2.03-4.86-3.49
			c-1.35-1.45-2.37-3.12-3.06-5.01c-0.69-1.89-1.04-3.85-1.04-5.89c0-2.03,0.34-4,1.04-5.89c0.69-1.89,1.71-3.56,3.06-5.01
			c1.35-1.45,2.97-2.62,4.86-3.49c1.89-0.87,4.04-1.31,6.45-1.31c2.4,0,4.55,0.44,6.44,1.31c1.89,0.87,3.51,2.04,4.86,3.49
			c1.35,1.45,2.37,3.13,3.06,5.01c0.69,1.89,1.04,3.85,1.04,5.89C368.23,50.59,367.89,52.56,367.2,54.45z M231.18,65.69V43.28
			c0-7.43-1.71-12.97-5.12-16.61c-3.42-3.64-8.98-5.46-16.7-5.46c-3.79,0-7.52,0.65-11.19,1.95c-3.67,1.3-6.85,3.33-9.52,6.08
			l5.46,5.69c2.08-1.93,4.47-3.36,7.18-4.29c2.71-0.93,5.47-1.39,8.3-1.39c4.08,0,7.25,0.97,9.52,2.9c2.26,1.93,3.4,4.79,3.4,8.59
			v1.56h-3.34c-3.19,0-6.7,0.15-10.52,0.45c-3.82,0.3-7.39,1.04-10.69,2.23c-3.3,1.19-6.07,3.01-8.29,5.46
			c-2.23,2.45-3.34,5.84-3.34,10.15c0,2.53,0.52,4.76,1.56,6.69c1.04,1.93,2.43,3.55,4.18,4.85c1.74,1.3,3.79,2.29,6.12,2.95
			c2.34,0.67,4.84,1,7.52,1c4.01,0,7.44-0.86,10.3-2.56c2.86-1.71,5.14-3.9,6.85-6.58h0.22c0,1.11,0.02,3.7,0.06,5.15
			c0.04,1.45,0.32,2.82,0.62,4h8.23c-0.22-1.33-0.41-2.85-0.56-4.45C231.25,70.03,231.18,67.18,231.18,65.69z M222.49,52.98
			c-0.07,2.16-0.45,4.18-1.11,6.08s-1.63,3.55-2.89,4.96c-1.26,1.41-2.84,2.55-4.73,3.4c-1.89,0.86-4.1,1.28-6.62,1.28
			c-3.27,0-5.99-0.69-8.18-2.06c-2.19-1.37-3.28-3.7-3.28-6.97c0-3.57,1.63-6.13,4.9-7.69c3.27-1.56,7.68-2.34,13.25-2.34h8.68
			V52.98z M462.97,21.2l-13.08,37.56h-0.22L435.07,21.2h-14.39l22.34,54l-2.51,6.21c-0.58,1.38-1.13,2.56-1.64,3.54
			c-0.51,0.98-1.14,1.78-1.91,2.4c-0.76,0.62-1.69,1.07-2.78,1.36c-1.09,0.29-2.44,0.44-4.03,0.44c-1.16,0-2.31-0.13-3.43-0.38
			c-1.13-0.26-2.2-0.56-3.22-0.93l-1.64,11.76c3.27,0.87,6.61,1.31,10.03,1.31c2.91,0,5.4-0.31,7.47-0.93
			c2.07-0.62,3.87-1.56,5.4-2.83c1.53-1.27,2.85-2.83,3.98-4.68c1.13-1.85,2.16-4.01,3.11-6.48L476.6,21.2H462.97z M307.72,7.24
			h-13.11v13.85h-10.81v11.12h10.81V57.5c0,3.05,0.24,5.74,0.71,8.07c0.47,2.33,1.35,4.27,2.62,5.83c1.27,1.56,3.02,2.73,5.24,3.49
			c2.22,0.76,5.08,1.14,8.58,1.14c1.53,0,3.29-0.13,5.3-0.38c2-0.26,3.7-0.71,5.08-1.36V63.28c-0.8,0.58-1.89,1-3.28,1.25
			c-1.38,0.26-2.66,0.38-3.82,0.38c-2.91,0-4.86-0.76-5.84-2.29c-0.98-1.53-1.47-3.6-1.47-6.21v-24.2h14.42V21.09h-14.42V7.24z
			 M273.53,46.54c-2.11-1.13-4.39-1.96-6.83-2.51c-2.44-0.55-4.72-1.07-6.83-1.58c-2.11-0.51-3.86-1.13-5.24-1.85
			c-1.38-0.73-2.08-1.89-2.08-3.49c0-1.96,0.84-3.38,2.51-4.25c1.67-0.87,3.39-1.31,5.13-1.31c4.3,0,7.72,1.78,10.27,5.34l8.74-7.85
			c-2.11-2.91-4.88-4.96-8.3-6.16c-3.42-1.2-6.88-1.8-10.38-1.8c-2.62,0-5.21,0.33-7.76,0.98c-2.55,0.65-4.81,1.67-6.77,3.05
			c-1.97,1.38-3.55,3.14-4.75,5.29c-1.2,2.14-1.8,4.67-1.8,7.58c0,3.34,0.69,5.96,2.08,7.85c1.38,1.89,3.13,3.36,5.24,4.42
			c2.11,1.05,4.39,1.82,6.83,2.29c2.44,0.47,4.71,0.98,6.83,1.53c2.11,0.55,3.86,1.25,5.24,2.13c1.38,0.87,2.08,2.22,2.08,4.03
			c0,1.02-0.27,1.91-0.82,2.67c-0.55,0.76-1.26,1.4-2.13,1.91c-0.87,0.51-1.82,0.87-2.84,1.09c-1.02,0.22-2,0.33-2.95,0.33
			c-2.77,0-5.12-0.6-7.05-1.8c-1.93-1.2-3.73-2.74-5.41-4.63l-8.74,8.18c2.69,3.05,5.75,5.16,9.18,6.32
			c3.42,1.16,7.17,1.74,11.25,1.74c2.69,0,5.39-0.29,8.08-0.87c2.69-0.58,5.12-1.53,7.26-2.83c2.15-1.31,3.9-3.03,5.24-5.18
			c1.35-2.14,2.02-4.78,2.02-7.9c0-3.42-0.69-6.1-2.08-8.07C277.39,49.21,275.64,47.67,273.53,46.54z"/>
	</g>
</g>
</svg>
