<?xml version="1.0" encoding="utf-8"?>
<!-- Generator: Adobe Illustrator 24.1.2, SVG Export Plug-In . SVG Version: 6.00 Build 0)  -->
<svg version="1.1" id="Castory_TEXT_1_" xmlns="http://www.w3.org/2000/svg" xmlns:xlink="http://www.w3.org/1999/xlink" x="0px"
	 y="0px" viewBox="0 0 460.8 137.52" style="enable-background:new 0 0 460.8 137.52;" xml:space="preserve">
<style type="text/css">
	.st0{fill-rule:evenodd;clip-rule:evenodd;fill:#FFFFFF;}
</style>
<g id="text_copy">
	<g>
		<path class="st0" d="M186.71,58.69c-2.85-1.52-5.91-2.64-9.2-3.38c-3.29-0.73-6.35-1.44-9.19-2.13c-2.85-0.68-5.2-1.52-7.06-2.5
			c-1.86-0.98-2.8-2.54-2.8-4.7c0-2.64,1.13-4.55,3.38-5.73c2.26-1.17,4.56-1.76,6.91-1.76c5.79,0,10.39,2.4,13.83,7.19l11.77-10.57
			c-2.85-3.91-6.57-6.68-11.18-8.3c-4.61-1.62-9.27-2.42-13.98-2.42c-3.53,0-7.01,0.44-10.45,1.32c-3.43,0.88-6.47,2.25-9.12,4.11
			c-2.65,1.86-4.78,4.23-6.4,7.12c-1.62,2.89-2.43,6.29-2.43,10.2c0,4.5,0.93,8.03,2.8,10.57c1.86,2.55,4.22,4.53,7.06,5.95
			c2.84,1.42,5.91,2.45,9.2,3.08c3.28,0.64,6.35,1.32,9.19,2.06c2.84,0.73,5.2,1.69,7.06,2.86c1.86,1.17,2.8,2.99,2.8,5.43
			c0,1.37-0.37,2.57-1.1,3.6c-0.74,1.03-1.69,1.89-2.87,2.57c-1.18,0.69-2.45,1.17-3.83,1.47c-1.37,0.29-2.7,0.44-3.97,0.44
			c-3.73,0-6.89-0.81-9.49-2.42c-2.6-1.62-5.03-3.69-7.28-6.24L138.6,87.54c3.63,4.11,7.75,6.95,12.36,8.52
			c4.61,1.56,9.66,2.35,15.15,2.35c3.63,0,7.26-0.39,10.89-1.17c3.63-0.78,6.89-2.06,9.78-3.82c2.89-1.76,5.25-4.09,7.06-6.97
			c1.81-2.89,2.72-6.44,2.72-10.65c0-4.6-0.93-8.22-2.8-10.87C191.91,62.28,189.55,60.21,186.71,58.69z M232.76,5.76H215.1V24.4
			h-14.57v14.98h14.57v34.06c0,4.11,0.32,7.73,0.96,10.87c0.64,3.13,1.81,5.75,3.53,7.86c1.71,2.11,4.07,3.67,7.06,4.7
			c2.99,1.03,6.84,1.54,11.55,1.54c2.06,0,4.44-0.17,7.14-0.51c2.7-0.34,4.98-0.95,6.84-1.84V81.22c-1.08,0.78-2.55,1.35-4.41,1.69
			c-1.86,0.34-3.58,0.51-5.15,0.51c-3.92,0-6.55-1.03-7.87-3.08c-1.32-2.06-1.99-4.85-1.99-8.37V39.38h19.42V24.4h-19.42V5.76z
			 M320.73,34.53c-3.43-3.23-7.5-5.73-12.21-7.49c-4.71-1.76-9.71-2.64-15.01-2.64c-5.3,0-10.3,0.88-15.01,2.64
			c-4.71,1.76-8.78,4.26-12.21,7.49c-3.43,3.23-6.16,7.12-8.17,11.67c-2.01,4.55-3.02,9.62-3.02,15.2c0,5.58,1,10.65,3.02,15.2
			c2.01,4.55,4.73,8.44,8.17,11.67c3.43,3.23,7.5,5.73,12.21,7.49c4.71,1.76,9.71,2.64,15.01,2.64c5.3,0,10.3-0.88,15.01-2.64
			c4.71-1.76,8.78-4.26,12.21-7.49c3.43-3.23,6.15-7.12,8.17-11.67c2.01-4.55,3.02-9.62,3.02-15.2c0-5.58-1.01-10.64-3.02-15.2
			C326.89,41.65,324.17,37.76,320.73,34.53z M312.86,69.33c-0.93,2.55-2.31,4.8-4.12,6.75c-1.82,1.96-4,3.52-6.55,4.7
			c-2.55,1.17-5.44,1.76-8.68,1.76c-3.24,0-6.13-0.59-8.68-1.76c-2.55-1.17-4.73-2.74-6.55-4.7c-1.82-1.96-3.19-4.21-4.12-6.75
			c-0.93-2.54-1.4-5.19-1.4-7.93c0-2.74,0.46-5.38,1.4-7.93c0.93-2.54,2.3-4.79,4.12-6.75c1.81-1.96,4-3.52,6.55-4.7
			c2.55-1.17,5.44-1.76,8.68-1.76c3.24,0,6.13,0.59,8.68,1.76c2.55,1.17,4.73,2.74,6.55,4.7c1.81,1.96,3.19,4.21,4.12,6.75
			c0.93,2.55,1.4,5.19,1.4,7.93C314.26,64.14,313.79,66.79,312.86,69.33z M363.69,27.19c-3.36,2.63-6.42,5.43-8.39,9.54h-0.29V24.4
			h-17.65v74h17.65V58.32c0-0.98,0.22-2.45,0.66-4.4c0.44-1.96,1.32-3.91,2.65-5.87c1.32-1.96,3.24-3.69,5.74-5.21
			c2.5-1.52,5.81-2.28,9.93-2.28c1.37,0,2.77,0.12,4.19,0.37c1.42,0.25,2.87,0.56,4.34,0.95l0.02-17.33
			C379.29,24.55,367.86,23.94,363.69,27.19z M441.85,24.55l-17.62,50.58h-0.29l-19.67-50.58h-19.38l30.09,72.72l-3.38,8.36
			c-0.78,1.86-1.52,3.45-2.2,4.77c-0.69,1.32-1.54,2.39-2.57,3.23c-1.03,0.83-2.28,1.44-3.74,1.83c-1.47,0.39-3.28,0.59-5.43,0.59
			c-1.57,0-3.11-0.17-4.62-0.51c-1.52-0.34-2.96-0.76-4.33-1.25l-2.2,15.84c4.4,1.17,8.9,1.76,13.51,1.76
			c3.91,0,7.27-0.42,10.06-1.25c2.79-0.83,5.21-2.1,7.27-3.81c2.06-1.71,3.84-3.81,5.36-6.31c1.52-2.49,2.91-5.4,4.18-8.72
			l33.32-87.24H441.85z M19.23,43.03c1.95-2.4,4.42-4.28,7.42-5.63c3-1.35,6.45-2.03,10.35-2.03c3.5,0,6.7,0.68,9.6,2.03
			c2.9,1.35,5.6,3.53,8.1,6.53l9.3-8.26c-3.5-3.8-7.57-6.61-12.22-8.41c-4.65-1.8-9.57-2.7-14.77-2.7c-5.4,0-10.32,0.93-14.77,2.78
			c-4.45,1.85-8.27,4.43-11.47,7.73c-3.2,3.3-5.67,7.21-7.42,11.71c-1.75,4.51-2.62,9.41-2.62,14.72c0,5.41,0.87,10.36,2.62,14.87
			c1.75,4.51,4.2,8.41,7.35,11.71c3.15,3.3,6.97,5.86,11.47,7.66c4.5,1.8,9.45,2.7,14.85,2.7c5.1,0,9.95-0.9,14.55-2.7
			c4.6-1.8,8.6-4.66,12-8.56l-8.7-8.26c-4.2,5.81-10.15,8.71-17.84,8.71c-3.6,0-6.85-0.68-9.75-2.03c-2.9-1.35-5.37-3.23-7.42-5.63
			c-2.05-2.4-3.65-5.18-4.8-8.33c-1.15-3.15-1.72-6.53-1.72-10.14c0-3.6,0.5-6.98,1.5-10.14C15.81,48.21,17.28,45.43,19.23,43.03z
			 M129.67,84.48V54.29c0-10.01-2.3-17.47-6.9-22.38c-4.6-4.9-12.1-7.36-22.49-7.36c-5.1,0-10.12,0.88-15.07,2.63
			c-4.95,1.75-9.22,4.48-12.82,8.18l7.35,7.66c2.8-2.6,6.02-4.53,9.67-5.78c3.65-1.25,7.37-1.88,11.17-1.88
			c5.5,0,9.77,1.3,12.82,3.9c3.05,2.6,4.57,6.46,4.57,11.56v2.1h-4.5c-4.3,0-9.02,0.2-14.17,0.6c-5.15,0.4-9.95,1.4-14.4,3
			c-4.45,1.6-8.17,4.05-11.17,7.36c-3,3.3-4.5,7.86-4.5,13.67c0,3.4,0.7,6.41,2.1,9.01c1.4,2.6,3.27,4.78,5.62,6.53
			c2.35,1.75,5.1,3.08,8.25,3.98c3.15,0.9,6.52,1.35,10.12,1.35c5.4,0,10.02-1.15,13.87-3.45c3.85-2.3,6.92-5.26,9.22-8.86h0.3
			c0,1.5,0.02,4.99,0.08,6.94c0.05,1.95,0.44,3.8,0.83,5.39h11.09c-0.3-1.79-0.55-3.83-0.75-5.99
			C129.77,90.32,129.67,86.48,129.67,84.48z M117.98,67.35c-0.1,2.91-0.6,5.63-1.5,8.18c-0.9,2.55-2.2,4.78-3.9,6.68
			c-1.7,1.9-3.82,3.43-6.37,4.58c-2.55,1.15-5.52,1.73-8.92,1.73c-4.4,0-8.07-0.92-11.02-2.78c-2.95-1.85-4.42-4.98-4.42-9.39
			c0-4.81,2.2-8.26,6.6-10.36c4.4-2.1,10.35-3.15,17.84-3.15h11.7V67.35z"/>
	</g>
</g>
</svg>
