<?xml version="1.0" encoding="utf-8"?>
<!-- Generator: Adobe Illustrator 24.1.2, SVG Export Plug-In . SVG Version: 6.00 Build 0)  -->
<svg version="1.1" id="Castory_x5F_icon_Full_1_" xmlns="http://www.w3.org/2000/svg" xmlns:xlink="http://www.w3.org/1999/xlink"
	 x="0px" y="0px" viewBox="0 0 480 372" style="enable-background:new 0 0 480 372;" xml:space="preserve">
<style type="text/css">
	.st0{fill-rule:evenodd;clip-rule:evenodd;fill:#FFFFFF;}
</style>
<g id="Castory_x5F_icon_Full">
	<g>
		<path class="st0" d="M436.07,93.99C435.87,92.84,435.78,92.73,436.07,93.99L436.07,93.99z M478.62,235.51
			c-25.59,0-115.75-0.34-135.21-0.26c-5.99,0.02-9.74-0.81-5.58-7.99c10.15-17.55,15.98-36.71,18.59-56.63
			c1.13-8.65,5.39-11.03,12.81-11.79c71.93-2.75,68.48-53.92,66.99-64.03c-13.65-46.62-33.26-80.53-110.61-89
			c-54.74-5.99-99.3-3.34-153.14-1.31C88.39,7.66,14.55,73.5,3.04,156.12c-15.13,108.59,59.8,199.37,159.33,212.78
			c10.68,1.44,141.53,0.65,196.18,0.65c18.76-3.06,37.43-6.36,54.85-14.6C484.32,321.4,478.62,265.85,478.62,235.51z M439.91,282.77
			c-12.92,29.68-37.7,43.4-67.72,49.69c-13.67,2.86-27.52,4.18-41.56,3.99c-20.01-0.28-116.57-0.07-144.83-0.09
			c-75.13-0.05-141.18-57.42-150.1-132.22C25.01,114.46,89.92,43.33,166.49,33.97c-1.99,0.24,106.72-1.17,106.72-1.17
			c27.56-0.66,55.29-2.26,81.93,7.5c22.7,8.32,38.84,23.49,48.05,45.96c2.15,5.25,3.18,10.37-0.7,15.3
			c-5.66,7.2-4.34,27.87-3.83,36.48c0.21,3.5-1.34,3.98-6.57,4.81c-5.41,0.86-14.86,2.05-15.42-0.6c-0.85-4.03-3.1-19.9-8.46-17.55
			c-22.39,9.83-34.33,1.37-34.29,15.36c-6.74,28.42-11.21,33.77-18.09,54.15c-26.44,40.55-26.19,13.07-22.37-11.56
			c-8.8-24.35-27.25-22.81-24.22-19.04c3.46,4.32,11.7,50.25,12.11,65.76c0.18,6.7,3.6,17.37-20.45,20.99
			c-20.79,4.63-99.77,7.73-118.82,17.56c35.33,3.03,38.88,3.03,130.12,3.08c54.94,0.01,105.37,1.17,159-1.77
			C444.27,268.96,445.23,270.55,439.91,282.77z M436.07,93.99c0.04,0.23,0.08,0.5,0.13,0.81c0.3,1.02,0.6,2.03,0.89,3.06
			C436.56,96.01,436.25,94.75,436.07,93.99z M341.64,71.28c7.89-0.56,9.9,0.34,9.87-3.43c-0.03-3.77-3.16-7.97-11.05-7.41
			c-7.89,0.56-11.45-0.48-11.42,3.29C329.06,67.5,333.75,71.83,341.64,71.28z"/>
	</g>
</g>
</svg>
